<svg width="14" height="14" viewBox="0 0 14 14" fill="none" xmlns="http://www.w3.org/2000/svg">
<path fill-rule="evenodd" clip-rule="evenodd" d="M11 0.75C11 0.611929 10.8881 0.5 10.75 0.5H3.25001C3.11194 0.5 3.00002 0.611926 3.00001 0.749996L3 1.49999C3 1.5 3 1.5 2.99999 1.5V1.5C2.99999 1.5 2.99999 1.5 2.99999 1.5L1.61132 2.42578C1.54177 2.47215 1.5 2.55021 1.5 2.6338V3.25C1.5 3.38807 1.61193 3.5 1.75 3.5H12.25C12.3881 3.5 12.5 3.38807 12.5 3.25V2.6338C12.5 2.55021 12.4582 2.47215 12.3887 2.42578L11.1113 1.57422C11.0418 1.52785 11 1.44979 11 1.3662V0.75Z" fill="#505050"/>
<path fill-rule="evenodd" clip-rule="evenodd" d="M2.15782 4.5C1.82716 4.5 1.58756 4.81522 1.67606 5.13382L3.89829 13.1338C3.9584 13.3502 4.15544 13.5 4.38005 13.5H9.61996C9.84456 13.5 10.0416 13.3502 10.1017 13.1338L12.3239 5.13382C12.4124 4.81522 12.1728 4.5 11.8422 4.5H2.15782ZM3.83601 7H10.164C10.3315 7 10.4516 7.16143 10.4035 7.32184L9.05345 11.8218C9.02173 11.9276 8.9244 12 8.81399 12H5.18601C5.07561 12 4.97828 11.9276 4.94655 11.8218L3.59655 7.32184C3.54843 7.16143 3.66854 7 3.83601 7Z" fill="#505050"/>
</svg>
