<svg width="14" height="14" viewBox="0 0 14 14" fill="none" xmlns="http://www.w3.org/2000/svg">
<path d="M2.98704 5.03724C4.15249 5.03724 4.73522 5.50067 4.73522 6.42753C4.73522 7.00566 4.45991 7.44615 3.90931 7.74898C3.36788 8.04264 2.59244 8.19406 1.58299 8.20323C1.56464 8.5336 1.55546 8.79514 1.55546 8.98785C1.55546 9.4008 1.64723 9.70823 1.83077 9.91011C2.02348 10.1028 2.26208 10.1992 2.54656 10.1992C2.83104 10.1992 3.08799 10.1441 3.31741 10.034C3.556 9.92388 3.74413 9.7954 3.88178 9.64858C4.01943 9.49257 4.13873 9.33198 4.23967 9.16679C4.42321 8.86396 4.51497 8.67125 4.51497 8.58866L4.76275 8.69878C4.73522 8.84561 4.65263 9.04291 4.51497 9.29068C4.37732 9.52928 4.22591 9.72658 4.06072 9.88258C3.89554 10.0386 3.65236 10.1854 3.33117 10.3231C3.00998 10.4515 2.65209 10.5158 2.25749 10.5158C1.51417 10.5158 0.949797 10.3414 0.564372 9.9927C0.188124 9.63481 0 9.14844 0 8.5336C0 7.44156 0.270715 6.58812 0.812145 5.97328C1.35357 5.34925 2.07854 5.03724 2.98704 5.03724ZM4.39109 6.42753C4.39109 6.12469 4.29932 5.87692 4.11579 5.68421C3.94143 5.48232 3.6753 5.38137 3.31741 5.38137C2.96869 5.38137 2.62456 5.59244 2.28502 6.01457C1.95465 6.4367 1.73441 7.06072 1.62429 7.88663C3.46882 7.87746 4.39109 7.39109 4.39109 6.42753Z" fill="#505050"/>
<path d="M5.87948 5.16113L6.25114 3.12389C6.93022 3.12389 7.43495 3.09636 7.76531 3.04129L7.94426 3C7.81578 3.64237 7.67354 4.36275 7.51754 5.16113H9.22442L9.19689 5.4089H7.47624C7.0174 7.77651 6.78798 9.2035 6.78798 9.68987C6.78798 9.98353 6.94399 10.1304 7.256 10.1304C7.56801 10.1304 7.85249 9.93306 8.10944 9.53845C8.36639 9.14385 8.54993 8.71713 8.66005 8.25829L8.90782 8.34089C8.56828 9.79082 7.86626 10.5158 6.80175 10.5158C6.36126 10.5158 5.99419 10.3965 5.70054 10.1579C5.40688 9.91011 5.26005 9.57057 5.26005 9.13926C5.26005 8.69878 5.44817 7.45533 5.82442 5.4089H5.14993L5.17746 5.16113H5.87948Z" fill="#505050"/>
<path d="M12.3206 7.51497C12.1279 7.32226 12.0316 7.08825 12.0316 6.81295C12.0316 6.53765 12.1279 6.30364 12.3206 6.11093C12.5134 5.90904 12.7474 5.80809 13.0227 5.80809C13.1053 5.80809 13.2108 5.82645 13.3393 5.86315C13.1649 5.54197 12.8391 5.38137 12.3619 5.38137C11.8848 5.38137 11.4626 5.68421 11.0955 6.28987C10.7285 6.89554 10.5449 7.79487 10.5449 8.98785C10.5449 9.4008 10.6367 9.70823 10.8202 9.91011C11.013 10.1028 11.2516 10.1992 11.536 10.1992C11.8205 10.1992 12.0775 10.1441 12.3069 10.034C12.5455 9.92388 12.7336 9.7954 12.8713 9.64858C13.0089 9.49257 13.1282 9.33198 13.2292 9.16679C13.4127 8.86396 13.5045 8.67125 13.5045 8.58866L13.7522 8.69878C13.7247 8.84561 13.6421 9.04291 13.5045 9.29068C13.3668 9.52928 13.2154 9.72658 13.0502 9.88258C12.885 10.0386 12.6418 10.1854 12.3206 10.3231C11.9995 10.4515 11.6416 10.5158 11.247 10.5158C10.5036 10.5158 9.93928 10.3414 9.55385 9.9927C9.1776 9.63481 8.98948 9.14844 8.98948 8.5336C8.98948 7.44156 9.26019 6.58812 9.80162 5.97328C10.3522 5.34925 11.0955 5.03724 12.0316 5.03724C12.6648 5.03724 13.1511 5.19784 13.4907 5.51903C13.8302 5.84021 14 6.26234 14 6.78542C14 7.11578 13.8991 7.36815 13.6972 7.5425C13.5045 7.71686 13.275 7.80404 13.0089 7.80404C12.7428 7.80404 12.5134 7.70769 12.3206 7.51497Z" fill="#505050"/>
</svg>
