<svg width="14" height="14" viewBox="0 0 14 14" fill="none" xmlns="http://www.w3.org/2000/svg">
<path d="M1.92802 0.625965C1.97253 0.548071 2.05537 0.5 2.14508 0.5H11.8549C11.9446 0.5 12.0275 0.548072 12.072 0.625965L13.7863 3.62597C13.8815 3.79263 13.7612 4 13.5692 4H0.430795C0.238839 4 0.118497 3.79263 0.213734 3.62597L1.92802 0.625965Z" fill="#505050"/>
<path d="M0.5 5.5C0.5 4.94772 0.947715 4.5 1.5 4.5H12.5C13.0523 4.5 13.5 4.94772 13.5 5.5V12.5C13.5 13.0523 13.0523 13.5 12.5 13.5H1.5C0.947715 13.5 0.5 13.0523 0.5 12.5V5.5Z" fill="#505050"/>
<path d="M2 6.5C2 6.22386 2.22386 6 2.5 6H11.5C11.7761 6 12 6.22386 12 6.5V11.5C12 11.7761 11.7761 12 11.5 12H2.5C2.22386 12 2 11.7761 2 11.5V6.5Z" fill="white"/>
<path d="M4.03771 10.8115H6.70948V10.1436H5.84762C5.65908 10.1436 5.39514 10.1651 5.19583 10.1867C5.92303 9.47564 6.52095 8.69996 6.52095 7.97815C6.52095 7.2348 6.01999 6.75 5.26586 6.75C4.72181 6.75 4.36629 6.96008 4 7.3533L4.43093 7.78423C4.63562 7.56338 4.87264 7.37485 5.16351 7.37485C5.54597 7.37485 5.76143 7.61725 5.76143 8.02125C5.76143 8.63532 5.12042 9.38407 4.03771 10.3537V10.8115Z" fill="#505050"/>
<path d="M7.8615 9.17399L8.48097 8.18285C8.59409 7.96738 8.70182 7.74653 8.79878 7.53106H8.82033C8.80955 7.76807 8.79339 8.12898 8.79339 8.36061V9.17399H7.8615ZM8.79339 10.8115H9.53136V9.77729H10V9.17399H9.53136V6.82003H8.57793L7.09121 9.23863V9.77729H8.79339V10.8115Z" fill="#505050"/>
</svg>
