<svg width="14" height="14" viewBox="0 0 14 14" fill="none" xmlns="http://www.w3.org/2000/svg">
<rect x="11.5" width="1.5" height="14" fill="#505050"/>
<rect x="8.5" width="1.5" height="14" fill="#505050"/>
<rect x="3" y="7" width="1.5" height="7" fill="#505050"/>
<path fill-rule="evenodd" clip-rule="evenodd" d="M2.7706 2.08099C2.47309 2.54429 2.26923 3.22051 2.26923 4C2.26923 4.77949 2.47309 5.45571 2.7706 5.91901C3.06899 6.38366 3.424 6.58824 3.75 6.58824C4.076 6.58824 4.43101 6.38366 4.7294 5.91901C5.02691 5.45571 5.23077 4.77949 5.23077 4C5.23077 3.22051 5.02691 2.54429 4.7294 2.08099C4.43101 1.61634 4.076 1.41176 3.75 1.41176C3.424 1.41176 3.06899 1.61634 2.7706 2.08099ZM1.73779 1.26042C2.20502 0.532841 2.90771 0 3.75 0C4.59229 0 5.29498 0.532841 5.76221 1.26042C6.23031 1.98936 6.5 2.96019 6.5 4C6.5 5.03981 6.23031 6.01064 5.76221 6.73958C5.29498 7.46716 4.59229 8 3.75 8C2.90771 8 2.20502 7.46716 1.73779 6.73958C1.26969 6.01064 1 5.03981 1 4C1 2.96019 1.26969 1.98936 1.73779 1.26042Z" fill="#505050"/>
</svg>
