<svg width="20" height="20" viewBox="0 0 20 20" fill="none" xmlns="http://www.w3.org/2000/svg">
<rect x="1" y="1" width="18" height="17.1905" rx="2" fill="black"/>
<ellipse cx="5.05001" cy="15.0238" rx="1.35" ry="1.35714" fill="white"/>
<ellipse cx="14.95" cy="15.0238" rx="1.35" ry="1.35714" fill="white"/>
<rect x="7.29999" y="14.5714" width="5.4" height="0.904762" fill="white"/>
<rect x="3.70001" y="3.71429" width="12.6" height="8.14286" rx="1" fill="white"/>
<rect x="2.79999" y="17.2857" width="3.6" height="2.71429" rx="1" fill="black"/>
<rect x="13.6" y="17.2857" width="3.6" height="2.71429" rx="1" fill="black"/>
<rect x="1" y="1" width="18" height="17.1905" rx="2" fill="black"/>
<ellipse cx="5.05001" cy="15.0238" rx="1.35" ry="1.35714" fill="white"/>
<ellipse cx="14.95" cy="15.0238" rx="1.35" ry="1.35714" fill="white"/>
<rect x="7.29999" y="14.5714" width="5.4" height="0.904762" fill="white"/>
<rect x="3.70001" y="3.71429" width="12.6" height="8.14286" rx="1" fill="white"/>
<rect x="2.79999" y="17.2857" width="3.6" height="2.71429" rx="1" fill="black"/>
<rect x="13.6" y="17.2857" width="3.6" height="2.71429" rx="1" fill="black"/>
</svg>
