<svg width="26" height="24" viewBox="0 0 26 24" fill="none" xmlns="http://www.w3.org/2000/svg">
<path d="M13.4755 1.08156L15.6677 7.82827C15.8685 8.4463 16.4444 8.86475 17.0943 8.86475H24.1882C24.6725 8.86475 24.8739 9.48455 24.4821 9.76925L18.743 13.9389C18.2172 14.3209 17.9972 14.998 18.1981 15.616L20.3902 22.3627C20.5399 22.8234 20.0126 23.2064 19.6208 22.9217L13.8817 18.752C13.3559 18.3701 12.6441 18.3701 12.1183 18.752L6.37923 22.9217C5.98737 23.2064 5.46013 22.8234 5.60981 22.3627L7.80194 15.616C8.00276 14.998 7.78277 14.3209 7.25704 13.939L1.51794 9.76925C1.12609 9.48455 1.32747 8.86475 1.81184 8.86475H8.90575C9.55559 8.86475 10.1315 8.44631 10.3323 7.82827L12.5245 1.08156C12.6741 0.620903 13.3259 0.620905 13.4755 1.08156Z" stroke="#929292"/>
</svg>
