<svg width="21" height="20" viewBox="0 0 21 20" fill="none" xmlns="http://www.w3.org/2000/svg">
<path d="M5.15833 7.998C6.68233 7.998 7.44433 8.604 7.44433 9.816C7.44433 10.572 7.08433 11.148 6.36433 11.544C5.65633 11.928 4.64233 12.126 3.32233 12.138C3.29833 12.57 3.28633 12.912 3.28633 13.164C3.28633 13.704 3.40633 14.106 3.64633 14.37C3.89833 14.622 4.21033 14.748 4.58233 14.748C4.95433 14.748 5.29033 14.676 5.59033 14.532C5.90233 14.388 6.14833 14.22 6.32833 14.028C6.50833 13.824 6.66433 13.614 6.79633 13.398C7.03633 13.002 7.15633 12.75 7.15633 12.642L7.48033 12.786C7.44433 12.978 7.33633 13.236 7.15633 13.56C6.97633 13.872 6.77833 14.13 6.56233 14.334C6.34633 14.538 6.02833 14.73 5.60833 14.91C5.18833 15.078 4.72033 15.162 4.20433 15.162C3.23233 15.162 2.49433 14.934 1.99033 14.478C1.49833 14.01 1.25233 13.374 1.25233 12.57C1.25233 11.142 1.60633 10.026 2.31433 9.222C3.02233 8.406 3.97033 7.998 5.15833 7.998ZM6.99433 9.816C6.99433 9.42 6.87433 9.096 6.63433 8.844C6.40633 8.58 6.05833 8.448 5.59033 8.448C5.13433 8.448 4.68433 8.724 4.24033 9.276C3.80833 9.828 3.52033 10.644 3.37633 11.724C5.78833 11.712 6.99433 11.076 6.99433 9.816ZM9.2073 8.16L9.6933 5.496C10.5813 5.496 11.2413 5.46 11.6733 5.388L11.9073 5.334C11.7393 6.174 11.5533 7.116 11.3493 8.16H13.5813L13.5453 8.484H11.2953C10.6953 11.58 10.3953 13.446 10.3953 14.082C10.3953 14.466 10.5993 14.658 11.0073 14.658C11.4153 14.658 11.7873 14.4 12.1233 13.884C12.4593 13.368 12.6993 12.81 12.8433 12.21L13.1673 12.318C12.7233 14.214 11.8053 15.162 10.4133 15.162C9.8373 15.162 9.3573 15.006 8.9733 14.694C8.5893 14.37 8.3973 13.926 8.3973 13.362C8.3973 12.786 8.6433 11.16 9.1353 8.484H8.2533L8.2893 8.16H9.2073ZM17.8967 11.238C17.6447 10.986 17.5187 10.68 17.5187 10.32C17.5187 9.96 17.6447 9.654 17.8967 9.402C18.1487 9.138 18.4547 9.006 18.8147 9.006C18.9227 9.006 19.0607 9.03 19.2287 9.078C19.0007 8.658 18.5747 8.448 17.9507 8.448C17.3267 8.448 16.7747 8.844 16.2947 9.636C15.8147 10.428 15.5747 11.604 15.5747 13.164C15.5747 13.704 15.6947 14.106 15.9347 14.37C16.1867 14.622 16.4987 14.748 16.8707 14.748C17.2427 14.748 17.5787 14.676 17.8787 14.532C18.1907 14.388 18.4367 14.22 18.6167 14.028C18.7967 13.824 18.9527 13.614 19.0847 13.398C19.3247 13.002 19.4447 12.75 19.4447 12.642L19.7687 12.786C19.7327 12.978 19.6247 13.236 19.4447 13.56C19.2647 13.872 19.0667 14.13 18.8507 14.334C18.6347 14.538 18.3167 14.73 17.8967 14.91C17.4767 15.078 17.0087 15.162 16.4927 15.162C15.5207 15.162 14.7827 14.934 14.2787 14.478C13.7867 14.01 13.5407 13.374 13.5407 12.57C13.5407 11.142 13.8947 10.026 14.6027 9.222C15.3227 8.406 16.2947 7.998 17.5187 7.998C18.3467 7.998 18.9827 8.208 19.4267 8.628C19.8707 9.048 20.0927 9.6 20.0927 10.284C20.0927 10.716 19.9607 11.046 19.6967 11.274C19.4447 11.502 19.1447 11.616 18.7967 11.616C18.4487 11.616 18.1487 11.49 17.8967 11.238Z" fill="black"/>
</svg>
